/* XPM */
static char * reddcoin16_xpm[] = {
"16 16 137 2",
"  	c None",
". 	c #EC1C24",
"+ 	c #EB1C23",
"@ 	c #E51D24",
"# 	c #0191D4",
"$ 	c #0193D5",
"% 	c #0093D5",
"& 	c #17A1DD",
"* 	c #26A4DA",
"= 	c #DF232F",
"- 	c #ED1C24",
"; 	c #EC1D24",
"> 	c #C92727",
", 	c #0190D4",
"' 	c #009BDC",
") 	c #0098D9",
"! 	c #008ED1",
"~ 	c #1099D6",
"{ 	c #4A3648",
"] 	c #DB2728",
"^ 	c #0192D4",
"/ 	c #009ADB",
"( 	c #0096D7",
"_ 	c #0091D3",
": 	c #008CCF",
"< 	c #0087CB",
"[ 	c #0A8FD0",
"} 	c #7C9A88",
"| 	c #E04522",
"1 	c #E91C24",
"2 	c #DD2427",
"3 	c #0282C8",
"4 	c #0098DA",
"5 	c #0094D6",
"6 	c #008FD2",
"7 	c #008ACE",
"8 	c #0084CA",
"9 	c #0080C6",
"0 	c #1781BB",
"a 	c #E4932E",
"b 	c #F68B1F",
"c 	c #DC4C22",
"d 	c #D72425",
"e 	c #006EB8",
"f 	c #0092D4",
"g 	c #008DD0",
"h 	c #0087CC",
"i 	c #1679B8",
"j 	c #585884",
"k 	c #9A3951",
"l 	c #DC2D28",
"m 	c #F6881F",
"n 	c #F58220",
"o 	c #F57F20",
"p 	c #DA3E23",
"q 	c #E42723",
"r 	c #045AA7",
"s 	c #0060AD",
"t 	c #1D75AE",
"u 	c #67567E",
"v 	c #AA3549",
"w 	c #D52026",
"x 	c #D31F26",
"y 	c #D21F26",
"z 	c #EC1F24",
"A 	c #F58020",
"B 	c #EC7920",
"C 	c #934425",
"D 	c #F79418",
"E 	c #1A8A72",
"F 	c #27A45A",
"G 	c #5A8940",
"H 	c #D81F25",
"I 	c #D51F26",
"J 	c #D11F26",
"K 	c #CE2026",
"L 	c #DE1E25",
"M 	c #F47720",
"N 	c #F9A116",
"O 	c #FECA08",
"P 	c #25AE4A",
"Q 	c #27AF4B",
"R 	c #21AE4B",
"S 	c #AD3D2E",
"T 	c #D01F26",
"U 	c #CC2026",
"V 	c #CD2026",
"W 	c #F46E21",
"X 	c #FAA813",
"Y 	c #FFCB08",
"Z 	c #1DAD4B",
"` 	c #1FAD4B",
" .	c #19AC4B",
"..	c #4E7F40",
"+.	c #CB2026",
"@.	c #C92026",
"#.	c #F36421",
"$.	c #F5811F",
"%.	c #FBB011",
"&.	c #14AA4B",
"*.	c #16AB4C",
"=.	c #10AA4C",
"-.	c #0CA84C",
";.	c #A8372C",
">.	c #CD1F26",
",.	c #F35E20",
"'.	c #FCB70E",
").	c #FECB07",
"!.	c #0DA94C",
"~.	c #09A84C",
"{.	c #07A84C",
"].	c #4E773E",
"^.	c #E01D25",
"/.	c #ED2128",
"(.	c #F78621",
"_.	c #08A74B",
":.	c #11A84B",
"<.	c #D43029",
"[.	c #ED242A",
"}.	c #F04A44",
"|.	c #F6842D",
"1.	c #FDCA08",
"2.	c #08A84C",
"3.	c #1FB04B",
"4.	c #79753B",
"5.	c #EE282D",
"6.	c #F04C46",
"7.	c #F05049",
"8.	c #F57834",
"9.	c #28B34B",
"0.	c #49B348",
"a.	c #E55947",
"b.	c #F36C3A",
"c.	c #7AC145",
"d.	c #B68747",
"e.	c #EF4F48",
"f.	c #F15F40",
"                      . + @     ",
"          # $ % & * = - - - ; > ",
"      , ' ) % ! ~ { - - - - - ] ",
"    ^ / ( _ : < [ } | 1 - - - 2 ",
"  3 4 5 6 7 8 9 0 a b c 1 - - d ",
"  e f g h i j k l m n o p - q   ",
"r s t u v w x y z A o o B C D   ",
"E F G H I J K L - M o o o N O   ",
"P Q R S T U V . - W o o X Y Y   ",
"Z `  ...+.@.L - - #.$.%.Y Y O   ",
"&.*.=.-.;.>.. - - ,.'.Y Y Y ).  ",
"  !.~.{.].^.- - /.(.Y Y Y Y     ",
"  _.{.{.:.<.- [.}.|.Y Y Y 1.    ",
"    2.{.3.4.5.6.7.8.Y Y O       ",
"      =.9.0.a.7.7.b.Y O         ",
"          c.d.e.7.f.            "};
