/* XPM */
static char * reddcoin64_xpm[] = {
"64 64 655 2",
"  	c None",
". 	c #E11F24",
"+ 	c #DB2124",
"@ 	c #D22425",
"# 	c #C42725",
"$ 	c #ED1C23",
"% 	c #ED1B24",
"& 	c #ED1C24",
"* 	c #ED1D24",
"= 	c #E92326",
"- 	c #D12525",
"; 	c #B42222",
"> 	c #ED1B23",
", 	c #EC2226",
"' 	c #CE2826",
") 	c #A91D20",
"! 	c #EC1B24",
"~ 	c #E02D29",
"{ 	c #AD1F22",
"] 	c #046EB8",
"^ 	c #037AC2",
"/ 	c #0281C7",
"( 	c #0289CD",
"_ 	c #018ED1",
": 	c #0190D4",
"< 	c #0191D4",
"[ 	c #0190D3",
"} 	c #018DD1",
"| 	c #0189CE",
"1 	c #098ECF",
"2 	c #23A8E0",
"3 	c #1C9FD9",
"4 	c #1597D3",
"5 	c #1494D1",
"6 	c #E2312B",
"7 	c #A91F21",
"8 	c #0571BA",
"9 	c #0382C7",
"0 	c #009CDD",
"a 	c #009BDC",
"b 	c #009ADB",
"c 	c #0098DA",
"d 	c #0098D9",
"e 	c #0096D8",
"f 	c #0095D7",
"g 	c #0094D6",
"h 	c #0093D5",
"i 	c #0697D7",
"j 	c #34BBEC",
"k 	c #32BAEC",
"l 	c #30B8EB",
"m 	c #29B0E6",
"n 	c #1FA6DE",
"o 	c #169AD5",
"p 	c #3B7EB1",
"q 	c #DA372F",
"r 	c #A41B1F",
"s 	c #0568B3",
"t 	c #0377BF",
"u 	c #018ED2",
"v 	c #0099DB",
"w 	c #0097D9",
"x 	c #0092D4",
"y 	c #0091D3",
"z 	c #0191D3",
"A 	c #31B9EB",
"B 	c #30B8EA",
"C 	c #2EB6EA",
"D 	c #2CB5E9",
"E 	c #2BB4E8",
"F 	c #29B3E7",
"G 	c #B3485C",
"H 	c #EE2629",
"I 	c #C1332C",
"J 	c #0376BD",
"K 	c #0099DA",
"L 	c #008FD2",
"M 	c #008ED1",
"N 	c #2DB6E9",
"O 	c #2BAFE3",
"P 	c #1379B6",
"Q 	c #229CD3",
"R 	c #5292BC",
"S 	c #E73F35",
"T 	c #A61D20",
"U 	c #046DB7",
"V 	c #028ACE",
"W 	c #0092D5",
"X 	c #0091D4",
"Y 	c #0090D3",
"Z 	c #008DD1",
"` 	c #008CD0",
" .	c #24AEE4",
"..	c #216C8C",
"+.	c #09355A",
"@.	c #015495",
"#.	c #963C59",
"$.	c #EE2A2B",
"%.	c #BE352F",
"&.	c #0377C0",
"*.	c #0097D8",
"=.	c #008DD0",
"-.	c #008CCF",
";.	c #008ACE",
">.	c #1EA8E0",
",.	c #29ACDE",
"'.	c #1F282C",
").	c #171415",
"!.	c #0F1720",
"~.	c #D6202C",
"{.	c #D64539",
"].	c #0569B4",
"^.	c #0282C8",
"/.	c #008BCF",
"(.	c #0088CD",
"_.	c #18A2DC",
":.	c #22A1CF",
"<.	c #222E32",
"[.	c #1E1D1D",
"}.	c #2E1718",
"|.	c #E6453B",
"1.	c #056AB5",
"2.	c #0096D7",
"3.	c #0090D2",
"4.	c #008BCE",
"5.	c #0089CD",
"6.	c #0088CC",
"7.	c #0087CC",
"8.	c #139CD9",
"9.	c #23AEE4",
"0.	c #18A9D8",
"a.	c #1B6174",
"b.	c #4B2022",
"c.	c #EA1C24",
"d.	c #EF433A",
"e.	c #A61E21",
"f.	c #0769B3",
"g.	c #0086CB",
"h.	c #0085CA",
"i.	c #0F96D5",
"j.	c #22ADE3",
"k.	c #20ACE2",
"l.	c #1CACE2",
"m.	c #3892AE",
"n.	c #CA3623",
"o.	c #D51E25",
"p.	c #EF3C36",
"q.	c #AB2123",
"r.	c #018CD0",
"s.	c #0089CE",
"t.	c #0084C9",
"u.	c #0083C9",
"v.	c #0A90D1",
"w.	c #20ABE2",
"x.	c #1EAAE2",
"y.	c #1DA9E1",
"z.	c #8BA180",
"A.	c #F79B1C",
"B.	c #D75820",
"C.	c #C32025",
"D.	c #DC1E24",
"E.	c #EF3C35",
"F.	c #A92022",
"G.	c #0287CC",
"H.	c #0083C8",
"I.	c #0081C7",
"J.	c #078ACD",
"K.	c #1EA9E1",
"L.	c #1CA8E0",
"M.	c #2DA6D1",
"N.	c #EC9928",
"O.	c #F8971D",
"P.	c #F8981D",
"Q.	c #E5761E",
"R.	c #C12625",
"S.	c #CC1F25",
"T.	c #E91C24",
"U.	c #EC3D34",
"V.	c #A51B20",
"W.	c #037DC4",
"X.	c #0084CA",
"Y.	c #0082C8",
"Z.	c #0080C6",
"`.	c #0484C9",
" +	c #1AA7DF",
".+	c #959E75",
"++	c #F7961E",
"@+	c #F7951E",
"#+	c #F7931E",
"$+	c #EE871D",
"%+	c #C52F24",
"&+	c #E21D24",
"*+	c #DE3931",
"=+	c #A51C1F",
"-+	c #0472BB",
";+	c #009ADC",
">+	c #0087CB",
",+	c #0082C7",
"'+	c #007FC5",
")+	c #007EC4",
"!+	c #017FC5",
"~+	c #1AA6DF",
"{+	c #32A3CA",
"]+	c #F09624",
"^+	c #F7941E",
"/+	c #F7921E",
"(+	c #F7911E",
"_+	c #F78F1E",
":+	c #F68E1F",
"<+	c #F28D1D",
"[+	c #C93723",
"}+	c #C02025",
"|+	c #DD1D24",
"1+	c #CA342C",
"2+	c #0569B3",
"3+	c #0192D5",
"4+	c #007DC3",
"5+	c #007CC2",
"6+	c #16A2DC",
"7+	c #9F9A6B",
"8+	c #F7901E",
"9+	c #F68F1F",
"0+	c #F68D1F",
"a+	c #F68B1F",
"b+	c #F68A1F",
"c+	c #F38D1D",
"d+	c #CA3A23",
"e+	c #BF2025",
"f+	c #DB1E24",
"g+	c #ED2B2A",
"h+	c #AF2323",
"i+	c #0F4F96",
"j+	c #0572B9",
"k+	c #008FD1",
"l+	c #007DC4",
"m+	c #007CC3",
"n+	c #007BC2",
"o+	c #007AC1",
"p+	c #349ABD",
"q+	c #F39321",
"r+	c #F68C1F",
"s+	c #F6891F",
"t+	c #F6881F",
"u+	c #F6861F",
"v+	c #F38A1D",
"w+	c #C93923",
"x+	c #D62F29",
"y+	c #0C4F9B",
"z+	c #016BB6",
"A+	c #007BC1",
"B+	c #0A76BA",
"C+	c #455C8F",
"D+	c #BC7F49",
"E+	c #F6871F",
"F+	c #F6851F",
"G+	c #F6841F",
"H+	c #F58220",
"I+	c #F2871E",
"J+	c #C63223",
"K+	c #E31D24",
"L+	c #EA2728",
"M+	c #B02123",
"N+	c #0F4E96",
"O+	c #055BA8",
"P+	c #0065B2",
"Q+	c #1175B6",
"R+	c #515987",
"S+	c #943B56",
"T+	c #CC222C",
"U+	c #D71E26",
"V+	c #F36620",
"W+	c #F58320",
"X+	c #F58120",
"Y+	c #F58020",
"Z+	c #F57F20",
"`+	c #EF821E",
" @	c #C32924",
".@	c #C42025",
"+@	c #ED2126",
"@@	c #C02725",
"#@	c #0C509B",
"$@	c #0064B1",
"%@	c #006BB6",
"&@	c #1B72B1",
"*@	c #5E557F",
"=@	c #A1374D",
"-@	c #D12028",
";@	c #D31F26",
">@	c #D21F26",
",@	c #D11F26",
"'@	c #E51D25",
")@	c #F25921",
"!@	c #E8771E",
"~@	c #BF2125",
"{@	c #CD1F25",
"]@	c #ED2025",
"^@	c #C82725",
"/@	c #0659A5",
"(@	c #0063B0",
"_@	c #276FAA",
":@	c #6A5077",
"<@	c #AD3245",
"[@	c #D51F26",
"}@	c #D41F26",
"|@	c #F14D22",
"1@	c #F5821F",
"2@	c #DB5F20",
"3@	c #EA2226",
"4@	c #C52624",
"5@	c #0C4D9A",
"6@	c #0161AE",
"7@	c #0063AF",
"8@	c #0062AE",
"9@	c #006AB5",
"0@	c #0281C6",
"a@	c #336BA2",
"b@	c #774C6F",
"c@	c #BB2D3C",
"d@	c #D71F25",
"e@	c #D61F25",
"f@	c #D51F25",
"g@	c #D01F26",
"h@	c #E61D24",
"i@	c #F04122",
"j@	c #F5871F",
"k@	c #CC4022",
"l@	c #EB1C24",
"m@	c #ED1E25",
"n@	c #DD2E25",
"o@	c #DC5822",
"p@	c #09539F",
"q@	c #0062AF",
"r@	c #0061AE",
"s@	c #0061AD",
"t@	c #0681C5",
"u@	c #40679B",
"v@	c #844767",
"w@	c #C62835",
"x@	c #D91F25",
"y@	c #D81F25",
"z@	c #EF3523",
"A@	c #BC2024",
"B@	c #D12E25",
"C@	c #E35823",
"D@	c #F47D20",
"E@	c #F37E1F",
"F@	c #055AA6",
"G@	c #0060AD",
"H@	c #0060AC",
"I@	c #006AB4",
"J@	c #0D81C2",
"K@	c #4C6392",
"L@	c #91425E",
"M@	c #CF242F",
"N@	c #DA1E25",
"O@	c #D91E25",
"P@	c #CF2026",
"Q@	c #E71D24",
"R@	c #EE2A23",
"S@	c #9F6A23",
"T@	c #292829",
"U@	c #242324",
"V@	c #672C22",
"W@	c #E44F24",
"X@	c #0E4D98",
"Y@	c #015FAB",
"Z@	c #005FAC",
"`@	c #005FAB",
" #	c #005EAA",
".#	c #0080C5",
"+#	c #157FBE",
"@#	c #595E8B",
"##	c #9E3D56",
"$#	c #D6212A",
"%#	c #DB1E25",
"&#	c #CE2026",
"*#	c #ED2024",
"=#	c #F3871F",
"-#	c #51422B",
";#	c #29292A",
">#	c #292624",
",#	c #DC6621",
"'#	c #F6831F",
")#	c #FCB60F",
"!#	c #0A4F9B",
"~#	c #06699E",
"{#	c #267F83",
"]#	c #AB384D",
"^#	c #DC1F27",
"/#	c #DC1E25",
"(#	c #E81D24",
"_#	c #F57920",
":#	c #C47B22",
"<#	c #55452B",
"[#	c #C87820",
"}#	c #F6861E",
"|#	c #FDBC0D",
"1#	c #FFCB08",
"2#	c #FDC809",
"3#	c #096F9A",
"4#	c #18897B",
"5#	c #27A25D",
"6#	c #2FB14A",
"7#	c #2EB14A",
"8#	c #B93F2D",
"9#	c #CD2026",
"0#	c #F46F21",
"a#	c #F6881E",
"b#	c #F78B1D",
"c#	c #FEC10C",
"d#	c #FDC808",
"e#	c #0757A2",
"f#	c #0C7496",
"g#	c #1D8E77",
"h#	c #2CA858",
"i#	c #32B24A",
"j#	c #31B14A",
"k#	c #2DB14A",
"l#	c #2BB04A",
"m#	c #63843F",
"n#	c #CC2026",
"o#	c #F36521",
"p#	c #F7901B",
"q#	c #FEC50A",
"r#	c #FDC909",
"s#	c #24A752",
"t#	c #35B24A",
"u#	c #33B24A",
"v#	c #30B14A",
"w#	c #2CB04A",
"x#	c #29B04B",
"y#	c #2AAF4B",
"z#	c #BD382B",
"A#	c #CB2026",
"B#	c #F25C21",
"C#	c #F89619",
"D#	c #FFC809",
"E#	c #27AF4B",
"F#	c #2AB04A",
"G#	c #28AF4B",
"H#	c #26AF4B",
"I#	c #677D3D",
"J#	c #F15222",
"K#	c #F99E17",
"L#	c #FFCA08",
"M#	c #0BA64B",
"N#	c #28AF4A",
"O#	c #28B04B",
"P#	c #25AF4B",
"Q#	c #24AF4B",
"R#	c #25AC4A",
"S#	c #C0332A",
"T#	c #CA2026",
"U#	c #F14822",
"V#	c #FAA615",
"W#	c #0DA54B",
"X#	c #27AF4A",
"Y#	c #23AF4B",
"Z#	c #21AE4B",
"`#	c #20AE4B",
" $	c #6B753C",
".$	c #C92026",
"+$	c #F03E23",
"@$	c #FBAE12",
"#$	c #0AA64B",
"$$	c #24AF4A",
"%$	c #2AB04B",
"&$	c #22AE4B",
"*$	c #1FAD4B",
"=$	c #1EAD4B",
"-$	c #23A94A",
";$	c #C22E2A",
">$	c #C82026",
",$	c #EF3423",
"'$	c #FCB510",
")$	c #0DA549",
"!$	c #1CAC4B",
"~$	c #1AAC4B",
"{$	c #6E6D3A",
"]$	c #EC1C24",
"^$	c #FDBB0E",
"/$	c #1CAD4B",
"($	c #23AE4B",
"_$	c #1DAD4B",
":$	c #1BAC4B",
"<$	c #19AC4B",
"[$	c #18AB4B",
"}$	c #21A54A",
"|$	c #C32A29",
"1$	c #DE1E25",
"2$	c #ED2124",
"3$	c #F68A1D",
"4$	c #FEC00C",
"5$	c #16AB4C",
"6$	c #17AB4B",
"7$	c #15AB4C",
"8$	c #736639",
"9$	c #CD1F26",
"0$	c #F57A20",
"a$	c #F78F1C",
"b$	c #FEC40A",
"c$	c #FECA09",
"d$	c #10AA4C",
"e$	c #14AA4C",
"f$	c #12AA4C",
"g$	c #20A049",
"h$	c #C42728",
"i$	c #E01D25",
"j$	c #F47021",
"k$	c #F8951A",
"l$	c #0BA74B",
"m$	c #13AA4C",
"n$	c #0FA94C",
"o$	c #785E37",
"p$	c #CF1F26",
"q$	c #F36621",
"r$	c #F99C18",
"s$	c #FFCA09",
"t$	c #FEC809",
"u$	c #18AC4B",
"v$	c #14AB4C",
"w$	c #11AA4C",
"x$	c #0DA94C",
"y$	c #209B48",
"z$	c #C52427",
"A$	c #E21D25",
"B$	c #FAA415",
"C$	c #0DA74A",
"D$	c #12AA4B",
"E$	c #0FAA4C",
"F$	c #0EA94C",
"G$	c #0CA94C",
"H$	c #0AA94C",
"I$	c #09A84C",
"J$	c #7C5735",
"K$	c #FBAC12",
"L$	c #0BA94C",
"M$	c #0AA84C",
"N$	c #08A84C",
"O$	c #07A84C",
"P$	c #239647",
"Q$	c #C62227",
"R$	c #E41D24",
"S$	c #F14922",
"T$	c #FCB410",
"U$	c #FEC808",
"V$	c #09A74B",
"W$	c #855133",
"X$	c #D31F25",
"Y$	c #F03F23",
"Z$	c #FDBA0E",
"`$	c #FEC80A",
" %	c #0CA64C",
".%	c #2A9145",
"+%	c #C72126",
"@%	c #FDBF0C",
"#%	c #08A74C",
"$%	c #8E4A32",
"%%	c #EE262B",
"&%	c #F25E3C",
"*%	c #FEC909",
"=%	c #338B44",
"-%	c #EE2A2E",
";%	c #F04D47",
">%	c #F15646",
",%	c #984430",
"'%	c #D61E25",
")%	c #EE2F32",
"!%	c #F04F48",
"~%	c #F05049",
"{%	c #FEC50C",
"]%	c #3D8442",
"^%	c #EE3535",
"/%	c #FDB912",
"(%	c #08A74B",
"_%	c #C53D2C",
":%	c #EF3A39",
"<%	c #FBAD19",
"[%	c #27B24B",
"}%	c #67843F",
"|%	c #EF3F3D",
"1%	c #FAA01F",
"2%	c #FECA08",
"3%	c #0CA74B",
"4%	c #1AAD4B",
"5%	c #28B34B",
"6%	c #29B24B",
"7%	c #CD362A",
"8%	c #ED2027",
"9%	c #EF4440",
"0%	c #F89426",
"a%	c #0BA84C",
"b%	c #707D3D",
"c%	c #ED2228",
"d%	c #F04843",
"e%	c #F7882C",
"f%	c #FDC709",
"g%	c #2BB14A",
"h%	c #D43029",
"i%	c #F04B45",
"j%	c #F57C33",
"k%	c #28B24B",
"l%	c #7A763B",
"m%	c #F46F39",
"n%	c #FEC908",
"o%	c #1EAE4B",
"p%	c #2FAF4A",
"q%	c #DB2B28",
"r%	c #EE2E31",
"s%	c #F2633F",
"t%	c #836F39",
"u%	c #EE3435",
"v%	c #F15746",
"w%	c #0AA74B",
"x%	c #1FAE4B",
"y%	c #29B34B",
"z%	c #5EB547",
"A%	c #E85849",
"B%	c #FEC60B",
"C%	c #FDC70A",
"D%	c #0EA74A",
"E%	c #10A84B",
"F%	c #2AB34B",
"G%	c #60BD47",
"H%	c #7CC245",
"I%	c #B68947",
"J%	c #FDBA12",
"K%	c #FDC908",
"L%	c #2DB44B",
"M%	c #67BE47",
"N%	c #84BA45",
"O%	c #EA5649",
"P%	c #FBAD18",
"Q%	c #FEC709",
"R%	c #2AB14B",
"S%	c #31B54A",
"T%	c #6DBF46",
"U%	c #BB8447",
"V%	c #FAA11F",
"W%	c #FEC70A",
"X%	c #70BD45",
"Y%	c #7CC244",
"Z%	c #87B745",
"`%	c #ED5349",
" &	c #F89525",
".&	c #7DC145",
"+&	c #7CC145",
"@&	c #C17E47",
"#&	c #F05047",
"$&	c #98A446",
"%&	c #EE4F48",
"&&	c #F05048",
"*&	c #EF4F48",
"=&	c #F04E48",
"-&	c #EF4E47",
"                                                                                                    . + @ #                     ",
"                                                                                            $ % & & & & & * = - ;               ",
"                                                                                        > & & & & & & & & & & & , ' )           ",
"                                                                                      ! & & & & & & & & & & & & & * ~ {         ",
"                                              ] ^ / ( _ : < [ } | 1 2 3 4 5         > & & & & & & & & & & & & & & & & 6 7       ",
"                                        8 9 < 0 0 a b c d e f g h i j k l m n o p ! & & & & & & & & & & & & & & & & & * q r     ",
"                                  s t u 0 0 0 0 b v d w e f h x y z A B C D E F G & & & & & & & & & & & & & & & & & & & H I     ",
"                                J < 0 0 0 0 a b K d e f g h x y L M E N O P Q R & & & & & & & & & & & & & & & & & & & & & S T   ",
"                            U V 0 0 0 0 0 a v c w e f g W X Y L Z `  .E ..+.@.#.& & & & & & & & & & & & & & & & & & & & & $.%.  ",
"                          &.w 0 0 0 0 a b K d *.f g h x y L M =.-.;.>.,.'.).!.~.& & & & & & & & & & & & & & & & & & & & & & {.r ",
"                      ].^.0 0 0 0 0 a b c d e f g h X Y L M ` /.;.(._.:.<.[.}.& & & & & & & & & & & & & & & & & & & & & & & |.r ",
"                    1.V 0 0 0 0 a b v d w 2.f h x y 3.M =.-.4.5.6.7.8.9.0.a.b.c.& & & & & & & & & & & & & & & & & & & & & & d.e.",
"                  f.} 0 0 0 0 a b K d e f g h x Y L M =./.;.(.7.g.h.i.j.k.l.m.n.o.c.& & & & & & & & & & & & & & & & & & & & p.q.",
"                1.r.0 0 0 0 a v c w e f g x X 3.L =.` 4.s.(.7.g.t.u.v.w.x.y.z.A.B.C.D.& & & & & & & & & & & & & & & & & & & E.F.",
"              ].G.0 0 0 a b K d *.f g h x y L M =.-.;.5.6.g.h.t.H.I.J.K.L.M.N.O.P.Q.R.S.T.& & & & & & & & & & & & & & & & & U.V.",
"              W.0 0 0 a v c w e f g h X Y L M ` /.;.(.7.g.X.u.Y.I.Z.`.L. +.+++@+#+#+$+%+C.&+& & & & & & & & & & & & & & & & *+=+",
"            -+;+0 a b K d *.f g h x y 3.M =.-.4.5.6.>+h.t.H.,+Z.'+)+!+~+{+]+^+/+(+_+:+<+[+}+|+& & & & & & & & & & & & & & * 1+  ",
"          2+3+0 a b c d e f g h x Y L M =./.;.(.7.g.h.u.Y.I.Z.'+)+4+5+6+7+#+/+8+9+0+a+b+c+d+e+f+& & & & & & & & & & & & & g+h+  ",
"        i+j+0 ;+v c w e f g x y 3.k+=.-.4.s.6.7.h.t.H.,+I.Z.'+l+m+n+o+p+q+(+8+:+r+a+s+t+u+v+w+e+|+& & & & & & & & & & & & x+    ",
"        y+z+K K d *.f g h x y L M =.-.;.5.7.g.h.t.Y.I.Z.'+)+4+m+A+B+C+D+8+_+0+r+b+s+E+F+G+H+I+J+}+K+& & & & & & & & & & L+M+    ",
"      N+O+P+X.w e f g h X Y L M ` /.;.(.7.g.t.u.Y.I.Z.'+)+m+Q+R+S+T+U+V+:+r+a+s+t+u+F+W+X+Y+Z+`+ @.@T.& & & & & & & & +@@@      ",
"      #@$@$@%@f g h x y L M =.-.;.5.6.g.h.t.H.I.Z.'+)+&@*@=@-@;@>@,@'@)@r+b+s+E+u+G+H+X+Y+Z+Z+Y+!@~@{@& & & & & & & ]@^@        ",
"      /@$@(@(@u.h x Y L M =./.;.(.7.g.h.u.Y.I.Z._@:@<@[@[@}@;@>@,@U+& |@b+t+E+F+W+H+Y+Z+Z+Z+Z+Z+1@2@e+|+& & & & & 3@4@          ",
"    5@6@(@7@8@9@y 3.M =.-.4.s.6.7.h.t.H.0@a@b@c@d@e@f@}@;@>@>@,@g@h@& i@t+u+G+W+X+Y+Z+Z+Z+Z+Z+Z+Z+j@k@C.l@& & m@n@o@            ",
"    p@(@q@r@s@s@I.M =.-.;.5.7.g.h.t@u@v@w@x@d@e@e@f@}@;@>@,@,@g@y@& & z@F+G+H+X+Z+Z+Z+Z+Z+Z+Z+Z+Z+Z+`+R.S.A@B@C@D@Z+E@          ",
"    F@q@r@s@G@H@I@` /.s.(.7.J@K@L@M@N@O@y@d@e@f@}@}@;@>@,@g@P@P@Q@& & R@W+X+Y+Z+Z+Z+Z+Z+Z+Z+Z+Z+Z+Z+Y+S@T@U@V@W@Z+Z+Y+          ",
"  X@Y@s@s@G@Z@`@ #.#5.+#@###$#%#N@O@x@y@d@e@f@}@;@>@,@,@g@P@&#y@& & & *#X+Z+Z+Z+Z+Z+Z+Z+Z+Z+Z+Z+Z+Z+Z+=#-#;#>#,#Z+'#)#          ",
"  !#s@G@H@Z@`@ #~#{#]#^#/#%#%#N@O@x@d@e@e@[@}@;@>@,@g@P@P@&#&#(#& & & & _#Z+Z+Z+Z+Z+Z+Z+Z+Z+Z+Z+Z+Z+Z+Z+:#<#[#Z+}#|#1#2#        ",
"  p@G@H@`@3#4#5#6#7#8#/#%#N@O@x@y@d@e@f@}@;@>@>@,@g@P@&#9#9#O@& & & & & 0#Z+Z+Z+Z+Z+Z+Z+Z+Z+Z+Z+Z+Z+Z+Z+1@a#Z+b#c#1#1#d#        ",
"  e#f#g#h#i#j#6#k#l#m#%#N@O@x@d@e@e@f@}@;@>@,@,@g@P@&#9#n#n#T.& & & & & o#Z+Z+Z+Z+Z+Z+Z+Z+Z+Z+Z+Z+Z+Z+Z+Z+Z+p#q#1#1#1#r#        ",
"  s#t#u#j#v#7#w#l#x#y#z#O@y@d@e@f@}@;@;@>@,@g@P@&#&#9#n#A#N@& & & & & & B#Z+Z+Z+Z+Z+Z+Z+Z+Z+Z+Z+Z+Z+Z+Z+Z+C#D#1#1#1#1#1#        ",
"  E#i#j#6#k#w#F#x#G#H#I#y@d@e@f@}@;@>@,@,@g@P@&#9#n#A#A#n#c.& & & & & & J#Z+Z+Z+Z+Z+Z+Z+Z+Z+Z+Z+Z+Z+Z+Z+K#L#1#1#1#1#1#1#        ",
"M#N#v#7#k#l#x#O#E#P#Q#R#S#e@}@}@;@>@,@g@P@&#&#9#n#A#T#T#%#& & & & & & & U#Z+Z+Z+Z+Z+Z+Z+Z+Z+Z+Z+Z+Z+Z+V#1#1#1#1#1#1#1#1#        ",
"W#X#7#w#F#x#O#H#P#Y#Z#`# $}@;@>@>@,@g@P@&#9#9#n#A#T#.$A#l@& & & & & & & +$Z+Z+Z+Z+Z+Z+Z+Z+Z+Z+Z+Z+Y+@$1#1#1#1#1#1#1#1#1#        ",
"#$$$l#%$O#E#H#Q#&$Z#*$=$-$;$>@,@g@P@P@&#9#n#A#T#T#.$>$/#& & & & & & & & ,$Z+Z+Z+Z+Z+Z+Z+Z+Z+Z+Z+1@'$1#1#1#1#1#1#1#1#1#1#        ",
")$`#x#O#E#P#Y#&$`#*$=$!$~${$,@g@P@&#&#9#n#A#T#T#>$>$n#]$& & & & & & & & R@Z+Z+Z+Z+Z+Z+Z+Z+Z+Z+}#^$1#1#1#1#1#1#1#1#1#1#1#        ",
"  /$G#H#Q#($Z#`#=$_$:$<$[$}$|$P@&#9#n#A#A#T#.$>$>$>$1$& & & & & & & & & 2$Z+Z+Z+Z+Z+Z+Z+Z+Z+3$4$1#1#1#1#1#1#1#1#1#1#1#1#        ",
"  5$P#Q#&$`#*$=$/$~$<$6$5$7$8$&#9#n#A#T#T#.$>$>$>$9$]$& & & & & & & & & & 0$Z+Z+Z+Z+Z+Z+Z+a$b$1#1#1#1#1#1#1#1#1#1#1#1#c$        ",
"  d$($Z#`#*$_$:$~$[$6$7$e$f$g$h$n#A#T#.$>$>$>$>$>$i$& & & & & & & & & & & j$Z+Z+Z+Z+Z+Z+k$D#1#1#1#1#1#1#1#1#1#1#1#1#1#2#        ",
"  l$Z#*$=$/$:$<$6$5$7$m$f$d$n$o$T#T#.$>$>$>$>$>$p$& & & & & & & & & & & & q$Z+Z+Z+Z+Z+r$s$1#1#1#1#1#1#1#1#1#1#1#1#1#1#t$        ",
"  l$:$_$!$~$u$6$5$v$m$w$d$n$x$y$z$>$>$>$>$>$>$>$A$& & & & & & & & & & & & B#Z+Z+Z+Z+B$1#1#1#1#1#1#1#1#1#1#1#1#1#1#1#1#          ",
"  C$D$:$<$[$5$7$m$f$d$E$F$G$H$I$J$>$>$>$>$>$>$,@& & & & & & & & & & & & & J#Z+Z+Y+K$1#1#1#1#1#1#1#1#1#1#1#1#1#1#1#1#1#          ",
"    L$<$6$5$v$m$w$d$n$x$L$M$N$O$P$Q$>$>$>$>$>$R$& & & & & & & & & & & & & S$Z+1@T$1#1#1#1#1#1#1#1#1#1#1#1#1#1#1#1#1#U$          ",
"    V$m$7$e$f$w$E$F$G$L$I$O$O$O$O$W$>$>$>$>$X$& & & & & & & & & & & & & & Y$F+Z$1#1#1#1#1#1#1#1#1#1#1#1#1#1#1#1#1#1#`$          ",
"     %G$m$f$d$n$x$G$H$N$O$O$O$O$O$.%+%>$>$>$h@& & & & & & & & & & & & & & +$@%1#1#1#1#1#1#1#1#1#1#1#1#1#1#1#1#1#1#1#            ",
"      #%E$d$F$x$L$I$N$O$O$O$O$O$O$O$$%>$>$f@& & & & & & & & & & & & & & %%&%1#1#1#1#1#1#1#1#1#1#1#1#1#1#1#1#1#1#1#*%            ",
"      M#M$F$G$H$I$O$O$O$O$O$O$O$O$O$=%>$.$Q@& & & & & & & & & & & & & -%;%>%1#1#1#1#1#1#1#1#1#1#1#1#1#1#1#1#1#1#1#              ",
"        O$H$M$N$O$O$O$O$O$O$O$O$O$O$O$,%'%& & & & & & & & & & & & & )%!%~%~%{%1#1#1#1#1#1#1#1#1#1#1#1#1#1#1#1#1#*%              ",
"        M#O$O$O$O$O$O$O$O$O$O$O$O$O$O$]%T.& & & & & & & & & & & & ^%~%~%~%~%/%1#1#1#1#1#1#1#1#1#1#1#1#1#1#1#1#1#                ",
"          (%O$O$O$O$O$O$O$O$O$O$O$O$O$<$_%& & & & & & & & & & * :%~%~%~%~%~%<%1#1#1#1#1#1#1#1#1#1#1#1#1#1#1#1#2#                ",
"            O$O$O$O$O$O$O$O$O$O$O$O$M$[%}%& & & & & & & & & m@|%~%~%~%~%~%~%1%1#1#1#1#1#1#1#1#1#1#1#1#1#1#1#2%                  ",
"            3%O$O$O$O$O$O$O$O$O$O$O$4%5%6%7%& & & & & & & 8%9%~%~%~%~%~%~%~%0%1#1#1#1#1#1#1#1#1#1#1#1#1#1#1#                    ",
"              #%O$O$O$O$O$O$O$O$O$a%[%5%5%b%& & & & & & c%d%~%~%~%~%~%~%~%~%e%1#1#1#1#1#1#1#1#1#1#1#1#1#1#f%                    ",
"                (%O$O$O$O$O$O$O$O$/$5%5%5%g%h%& & & & %%i%~%~%~%~%~%~%~%~%~%j%1#1#1#1#1#1#1#1#1#1#1#1#1#t$                      ",
"                  N$O$O$O$O$O$O$G$k%5%5%5%5%l%& & & -%;%~%~%~%~%~%~%~%~%~%~%m%1#1#1#1#1#1#1#1#1#1#1#1#n%                        ",
"                    (%O$O$O$O$O$o%5%5%5%5%5%p%q%& r%!%~%~%~%~%~%~%~%~%~%~%~%s%1#1#1#1#1#1#1#1#1#1#1#U$                          ",
"                      (%O$O$O$F$5%5%5%5%5%5%5%t%u%~%~%~%~%~%~%~%~%~%~%~%~%~%v%1#1#1#1#1#1#1#1#1#1#2#                            ",
"                        w%O$O$x%5%5%5%5%5%5%y%z%A%~%~%~%~%~%~%~%~%~%~%~%~%~%~%B%1#1#1#1#1#1#1#2%C%                              ",
"                          D%E%5%5%5%5%5%5%F%G%H%I%~%~%~%~%~%~%~%~%~%~%~%~%~%~%J%1#1#1#1#1#1#K%                                  ",
"                              g%5%5%5%5%L%M%H%H%N%O%~%~%~%~%~%~%~%~%~%~%~%~%~%P%1#1#1#1#2%Q%                                    ",
"                                  R%5%S%T%H%H%H%H%U%~%~%~%~%~%~%~%~%~%~%~%~%~%V%1#1#2%W%                                        ",
"                                      X%Y%H%H%H%H%Z%`%~%~%~%~%~%~%~%~%~%~%~%~% &n%`$                                            ",
"                                            .&+&H%H%@&~%~%~%~%~%~%~%~%~%~%!%#&                                                  ",
"                                                    $&%&!%%&&&*&=&-&                                                            "};
