/* XPM */
static char * reddcoin32_xpm[] = {
"32 32 341 2",
"  	c None",
". 	c #EB1C23",
"+ 	c #E71E24",
"@ 	c #E11E23",
"# 	c #D32224",
"$ 	c #ED1B24",
"% 	c #ED1C24",
"& 	c #E52125",
"* 	c #BE2424",
"= 	c #0188CD",
"- 	c #018DD1",
"; 	c #0192D5",
"> 	c #0094D6",
", 	c #0092D4",
"' 	c #0490D2",
") 	c #29AFE4",
"! 	c #23A7DF",
"~ 	c #1B9ED7",
"{ 	c #EC1C24",
"] 	c #EA2226",
"^ 	c #B92725",
"/ 	c #037DC4",
"( 	c #018FD3",
"_ 	c #009CDD",
": 	c #009BDC",
"< 	c #0099DA",
"[ 	c #0097D8",
"} 	c #0090D2",
"| 	c #2EB7EA",
"1 	c #26A5DB",
"2 	c #32A5D7",
"3 	c #DE2732",
"4 	c #E12D2B",
"5 	c #018CCF",
"6 	c #009ADB",
"7 	c #0098DA",
"8 	c #0096D8",
"9 	c #0093D5",
"0 	c #0091D3",
"a 	c #008ED1",
"b 	c #008CCF",
"c 	c #26AEE3",
"d 	c #18374A",
"e 	c #5F324E",
"f 	c #ED1F26",
"g 	c #BE322E",
"h 	c #0376BE",
"i 	c #0196D8",
"j 	c #0099DB",
"k 	c #0097D9",
"l 	c #0095D7",
"m 	c #0092D5",
"n 	c #0090D3",
"o 	c #008DD1",
"p 	c #008BCF",
"q 	c #0088CD",
"r 	c #1CA3DA",
"s 	c #1D5567",
"t 	c #941C21",
"u 	c #CA312E",
"v 	c #0476BE",
"w 	c #0091D4",
"x 	c #008FD2",
"y 	c #008CD0",
"z 	c #008ACE",
"A 	c #0087CC",
"B 	c #0085CA",
"C 	c #169FDB",
"D 	c #1EABE2",
"E 	c #A1815B",
"F 	c #D62D23",
"G 	c #E91C24",
"H 	c #CD2E2C",
"I 	c #0371BB",
"J 	c #0098D9",
"K 	c #0089CD",
"L 	c #0086CB",
"M 	c #0083C9",
"N 	c #0081C7",
"O 	c #1198D6",
"P 	c #3EA5C1",
"Q 	c #F59720",
"R 	c #F38D1E",
"S 	c #D03F22",
"T 	c #DF1D24",
"U 	c #C92E2A",
"V 	c #018ED2",
"W 	c #008DD0",
"X 	c #0082C8",
"Y 	c #0080C6",
"Z 	c #007EC4",
"` 	c #0C91D0",
" .	c #AE9A5E",
"..	c #F7921E",
"+.	c #F78F1E",
"@.	c #F58C1E",
"#.	c #D24722",
"$.	c #D91E24",
"%.	c #ED2026",
"&.	c #B92926",
"*.	c #0661AB",
"=.	c #0096D7",
"-.	c #0084C9",
";.	c #0082C7",
">.	c #007FC5",
",.	c #007DC4",
"'.	c #027AC0",
").	c #4D7C95",
"!.	c #F6911F",
"~.	c #F68E1F",
"{.	c #F68A1F",
"].	c #F6871F",
"^.	c #F5861F",
"/.	c #D04422",
"(.	c #DB1E24",
"_.	c #D82425",
":.	c #0162AF",
"<.	c #008BCE",
"[.	c #0083C8",
"}.	c #077CC0",
"|.	c #406195",
"1.	c #824363",
"2.	c #C12733",
"3.	c #E83E23",
"4.	c #F68C1F",
"5.	c #F6891F",
"6.	c #F6861F",
"7.	c #F58320",
"8.	c #F58020",
"9.	c #F3801F",
"0.	c #CB3823",
"a.	c #E41D24",
"b.	c #E42025",
"c.	c #0757A2",
"d.	c #0063B0",
"e.	c #006CB7",
"f.	c #0084CA",
"g.	c #0D7CBE",
"h.	c #4D5F8E",
"i.	c #8F3F5B",
"j.	c #CB242D",
"k.	c #D41F26",
"l.	c #D21F26",
"m.	c #D81E25",
"n.	c #EF3123",
"o.	c #F6881F",
"p.	c #F6851F",
"q.	c #F58120",
"r.	c #F57F20",
"s.	c #EF7A1F",
"t.	c #CB2724",
"u.	c #ED1D24",
"v.	c #E43124",
"w.	c #045CA9",
"x.	c #0061AE",
"y.	c #0060AD",
"z.	c #167CBB",
"A.	c #5A5B87",
"B.	c #9E3B53",
"C.	c #D32129",
"D.	c #D61F25",
"E.	c #D51F26",
"F.	c #D31F26",
"G.	c #D11F26",
"H.	c #CF2026",
"I.	c #E61D24",
"J.	c #EE2624",
"K.	c #D16421",
"L.	c #752225",
"M.	c #C04023",
"N.	c #0060AC",
"O.	c #005FAB",
"P.	c #0B71A4",
"Q.	c #675880",
"R.	c #AC364B",
"S.	c #D91F26",
"T.	c #D91E25",
"U.	c #D81F25",
"V.	c #D01F26",
"W.	c #D71F25",
"X.	c #F57E20",
"Y.	c #F48120",
"Z.	c #654B28",
"`.	c #B06121",
" +	c #F7911B",
".+	c #FDC20A",
"++	c #08549F",
"@+	c #0A7099",
"#+	c #1A8A7A",
"$+	c #28A35B",
"%+	c #2EB14A",
"&+	c #B5402D",
"*+	c #DA1E25",
"=+	c #D91F25",
"-+	c #D51F25",
";+	c #CE2026",
">+	c #CD2026",
",+	c #E71D24",
"'+	c #F47520",
")+	c #F5821F",
"!+	c #F89819",
"~+	c #FFC909",
"{+	c #FECA08",
"]+	c #1DA64F",
"^+	c #33B24A",
"/+	c #2FB14A",
"(+	c #2CB04A",
"_+	c #29B04B",
":+	c #5D8540",
"<+	c #CC2026",
"[+	c #F36B21",
"}+	c #F99F16",
"|+	c #FFCA08",
"1+	c #FFCB08",
"2+	c #1DAC4A",
"3+	c #2BB04A",
"4+	c #28B04B",
"5+	c #25AF4B",
"6+	c #23AE4B",
"7+	c #B5392C",
"8+	c #CB2026",
"9+	c #CA2026",
"0+	c #E81D24",
"a+	c #F36121",
"b+	c #FAA714",
"c+	c #1AAB4A",
"d+	c #2AB04B",
"e+	c #27AF4B",
"f+	c #24AF4B",
"g+	c #21AE4B",
"h+	c #1EAD4B",
"i+	c #5B7C3E",
"j+	c #C92026",
"k+	c #D71E25",
"l+	c #F25722",
"m+	c #FBAF11",
"n+	c #15A94B",
"o+	c #26AF4B",
"p+	c #22AE4B",
"q+	c #1FAD4B",
"r+	c #1CAD4B",
"s+	c #19AC4B",
"t+	c #19A94B",
"u+	c #B5342B",
"v+	c #C82026",
"w+	c #F14D22",
"x+	c #F6831F",
"y+	c #FCB60F",
"z+	c #0EA84B",
"A+	c #1BAC4B",
"B+	c #18AB4B",
"C+	c #15AB4C",
"D+	c #12AA4C",
"E+	c #5B743D",
"F+	c #F04322",
"G+	c #F6861E",
"H+	c #FDBC0D",
"I+	c #1AAC4B",
"J+	c #17AB4B",
"K+	c #14AA4C",
"L+	c #11AA4C",
"M+	c #0EA94C",
"N+	c #10A54B",
"O+	c #B42F2A",
"P+	c #EA1C24",
"Q+	c #EF3A23",
"R+	c #F78B1D",
"S+	c #FEC10B",
"T+	c #FEC909",
"U+	c #10A94B",
"V+	c #16AB4C",
"W+	c #13AA4C",
"X+	c #10AA4C",
"Y+	c #0DA94C",
"Z+	c #09A84C",
"`+	c #07A84C",
" @	c #5D6C3B",
".@	c #DB1E25",
"+@	c #EF3023",
"@@	c #F7901B",
"#@	c #FEC50A",
"$@	c #0BA74C",
"%@	c #0FA94C",
"&@	c #0BA94C",
"*@	c #08A84C",
"=@	c #10A24A",
"-@	c #B92B29",
";@	c #EB1C24",
">@	c #EF372C",
",@	c #FFC809",
"'@	c #0AA84C",
")@	c #666639",
"!@	c #DD1E25",
"~@	c #EE3133",
"{@	c #F05148",
"]@	c #FFCA09",
"^@	c #FEC908",
"/@	c #0AA74C",
"(@	c #19A049",
"_@	c #E22426",
":@	c #EF3737",
"<@	c #F05049",
"[@	c #FEBF0F",
"}@	c #1DAE4B",
"|@	c #936236",
"1@	c #ED1D25",
"2@	c #EF3C3B",
"3@	c #FCB315",
"4@	c #07A74B",
"5@	c #28B34B",
"6@	c #3BA547",
"7@	c #E72125",
"8@	c #ED1E26",
"9@	c #EF413E",
"0@	c #FBA61C",
"a@	c #1EAF4B",
"b@	c #9C5B34",
"c@	c #ED2127",
"d@	c #EF4541",
"e@	c #F99A22",
"f@	c #0FAA4C",
"g@	c #4DA346",
"h@	c #ED4B44",
"i@	c #F88E29",
"j@	c #3AB64A",
"k@	c #75C146",
"l@	c #C57A48",
"m@	c #F6822F",
"n@	c #3CB548",
"o@	c #78C145",
"p@	c #7CC245",
"q@	c #8FB046",
"r@	c #EF5149",
"s@	c #F57635",
"t@	c #FECA07",
"u@	c #7CC145",
"v@	c #D36C47",
"w@	c #EF5049",
"x@	c #F04F48",
"y@	c #EF4F48",
"z@	c #EE4E48",
"                                                . + @ #         ",
"                                            $ % % % % % & *     ",
"                      = - ; > , ' ) ! ~   { % % % % % % % ] ^   ",
"                / ( _ : < [ > , } | 1 2 3 % % % % % % % % % 4   ",
"              5 _ _ 6 7 8 9 0 a b c d e % % % % % % % % % % f g ",
"          h i _ : j k l m n o p q r s t % % % % % % % % % % % u ",
"        v 7 _ : 7 8 > w x y z A B C D E F G % % % % % % % % % H ",
"      I k _ 6 J l 9 n a p K L M N O P Q R S T % % % % % % % % U ",
"      V : < [ > , x W z A B X Y Z `  ...+.@.#.$.% % % % % % %.&.",
"    *.6 J =.9 0 a b K L -.;.>.,.'.).!.~.{.].^./.(.% % % % % _.  ",
"    :.A l , } W <.q B [.N }.|.1.2.3.4.5.6.7.8.9.0.a.% % % b.    ",
"  c.d.e.w x y z A f.g.h.i.j.k.l.m.n.o.p.q.r.r.r.s.t.{ u.v.      ",
"  w.x.y.N p q z.A.B.C.D.E.F.G.H.I.J.7.8.r.r.r.r.r.K.L.M.r.      ",
"  y.N.O.P.Q.R.S.T.U.D.k.l.V.H.W.% u.X.r.r.r.r.r.r.Y.Z.`. +.+    ",
"++@+#+$+%+&+*+=+W.-+F.G.V.;+>+,+% % '+r.r.r.r.r.r.r.)+!+~+{+    ",
"]+^+/+(+_+:+U.D.k.l.G.H.>+<+W.% % % [+r.r.r.r.r.r.r.}+|+1+1+    ",
"2+%+3+4+5+6+7+F.l.V.;+>+8+9+0+% % % a+r.r.r.r.r.r.b+1+1+1+1+    ",
"c+d+e+f+g+h+i+G.H.;+<+9+j+k+% % % % l+r.r.r.r.q.m+1+1+1+1+1+    ",
"n+o+p+q+r+s+t+u+>+8+9+v+j+G % % % % w+r.r.r.x+y+1+1+1+1+1+{+    ",
"z+g+h+A+B+C+D+E+8+j+v+v+T.% % % % % F+r.r.G+H+1+1+1+1+1+1+{+    ",
"  s+I+J+K+L+M+N+O+v+v+9+P+% % % % % Q+r.R+S+1+1+1+1+1+1+1+T+    ",
"  U+V+W+X+Y+Z+`+ @v+v+.@% % % % % % +@@@#@1+1+1+1+1+1+1+1+      ",
"  $@L+%@&@*@`+`+=@-@8+;@% % % % % % >@,@1+1+1+1+1+1+1+1+{+      ",
"    '@'@`+`+`+`+`+)@!@% % % % % % ~@{@]@1+1+1+1+1+1+1+1+^@      ",
"    /@`+`+`+`+`+`+(@_@% % % % % :@<@<@[@1+1+1+1+1+1+1+{+        ",
"      `+`+`+`+`+`+}@|@% % % 1@2@<@<@<@3@1+1+1+1+1+1+1+          ",
"        4@`+`+`+Y+5@6@7@% 8@9@<@<@<@<@0@1+1+1+1+1+1+T+          ",
"          4@`+`+a@5@5@b@c@d@<@<@<@<@<@e@1+1+1+1+1+^@            ",
"            4@f@5@5@5@g@h@<@<@<@<@<@<@i@1+1+1+1+^@              ",
"              g+5@5@j@k@l@<@<@<@<@<@<@m@1+1+{+                  ",
"                  n@o@p@q@r@<@<@<@<@<@s@t@                      ",
"                        u@v@w@x@y@x@z@                          "};
